{"title":"Continuum S03E03 HDTV x264 [2HD]","uid":9927441,"size":333144831,"categoryP":"video","categoryS":"tv_shows","magnet":"?xt=urn:btih:524505c0899c9158c3ab7659ffa63915023250e9&amp;dn=Continuum+S03E03+HDTV+x264+%5B2HD%5D&amp;tr=udp%3A%2F%2Ftracker.openbittorrent.com%3A80&amp;tr=udp%3A%2F%2Fopen.demonii.com%3A1337&amp;tr=udp%3A%2F%2Ftracker.coppersurfer.tk%3A6969&amp;tr=udp%3A%2F%2Fexodus.desync.com%3A6969","seeders":3,"leechers":1,"uploader":"haloReD","files":-1,"time":1397078917,"description":"                    Continuum S03E03 HDTV x264 [2HD]\n\nGeneral:\n\nName                    : Continuum.S03E03.HDTV.x264-2HD.mp4\nFormat                  : MPEG-4\nCodec ID                : isom\nFile size               : 310 MiB\nDuration                : 44mn 2s\nOverall bit rate mode   : Variable\nOverall bit rate        : 985 Kbps\n\nVideo:\n\nFormat                  : AVC\nDuration                : 44mn 2s\nBit rate                : 846 Kbps\nMaximum bit rate        : 3 806 Kbps\nWidth                   : 720 pixels\nHeight                  : 404 pixels\nDisplay aspect ratio    : 16:9\nFrame rate              : 23.976 fps\nStream size             : 267 MiB (86%)\n\n\nAudio:\n\nFormat                  : AAC\nCodec ID                : 40\nDuration                : 44mn 2s\nBit rate mode           : Variable\nBit rate                : 132 Kbps\nMaximum bit rate        : 156 Kbps\nChannel(s)              : 2 channels\nSampling rate           : 48.0 KHz\nCompression mode        : Lossy\nStream size             : 42.2 MiB (14%)\n\nScreen:\n &lt;a href=&quot;\nhttp://i.imgur.com/pAbX1DD.jpg&quot; rel=&quot;nofollow&quot; target=&quot;_NEW&quot;&gt;\nhttp://i.imgur.com/pAbX1DD.jpg&lt;/a&gt;","torrent":{"xt":"urn:btih:524505c0899c9158c3ab7659ffa63915023250e9","amp;dn":"Continuum+S03E03+HDTV+x264+%5B2HD%5D","amp;tr":["udp%3A%2F%2Ftracker.openbittorrent.com%3A80","udp%3A%2F%2Fopen.demonii.com%3A1337","udp%3A%2F%2Ftracker.coppersurfer.tk%3A6969","udp%3A%2F%2Fexodus.desync.com%3A6969"],"infoHash":"524505c0899c9158c3ab7659ffa63915023250e9","infoHashBuffer":{"type":"Buffer","data":[82,69,5,192,137,156,145,88,195,171,118,89,255,166,57,21,2,50,80,233]},"announce":[],"urlList":[]}}